<svg id="Layer_1" data-name="Layer 1" xmlns="http://www.w3.org/2000/svg" viewBox="0 0 1080 1080"><path d="M421.05,616.15c13,.65,25.41,2.1,37.81,1.72,20.84-.64,35.67-10.86,43.26-30.68,5.56-14.53,8-29.16.61-43.85-5.49-11-14.46-18.62-24.55-25.09-15.23-9.77-32-16.19-49-22-5.18-1.78-5.05-1.73-4.49-7.37,1.27-12.8,2.38-25.63,3.57-38.63a21.76,21.76,0,0,0-2.85-.4c-18.62.09-37.23.22-55.84.27a53,53,0,0,1-10.09-.61c-7.36-1.4-11.92-6.2-14-13.21-4-13.58-7.76-27.23-11.6-40.85a6.83,6.83,0,0,1,0-1.64H746.15v54.83H702.63v14.45q-.07,44.93-.18,89.86c0,7.68-.28,15.36-.68,23-.46,9-3.72,17.34-10,23.61-20,19.95-40.39,39.44-60.64,59.11l-1.21-.55c0-1.73,0-3.45,0-5.18-.23-12.22.25-24.51-.87-36.66-1.71-18.42-17.41-29.29-34.61-24.81-8.55,2.23-14.39,8.14-19.24,15.11-6.83,9.83-13.48,19.79-20.28,29.65-10.94,15.87-24,29.41-41.42,38.33-24.4,12.54-49.71,15.26-76,6.64-8-2.62-14.87-6.63-16.58-15.82a38.57,38.57,0,0,1-.38-7.38c.13-12.88.32-25.77.48-38.65C421.07,618.08,421.05,616.8,421.05,616.15Zm84.41-165.29c31.51,19.56,53.23,46.25,61.9,82.82,10.52-4.65,20.81-7.27,31.93-5.82s20.38,6.45,29.56,13v-90Z"/></svg>