<svg id="Layer_1" data-name="Layer 1" xmlns="http://www.w3.org/2000/svg" viewBox="0 0 1080 1080"><path d="M433.91,524.76c12.95.66,25.41,2.11,37.81,1.73,20.84-.64,35.67-10.86,43.25-30.69,5.56-14.52,8-29.15.62-43.85-5.49-11-14.46-18.62-24.55-25.09-15.23-9.76-32-16.19-49-22-5.18-1.77-5-1.73-4.48-7.36,1.27-12.81,2.37-25.63,3.56-38.64a21.46,21.46,0,0,0-2.84-.39c-18.62.08-37.23.22-55.85.26a53.76,53.76,0,0,1-10.08-.6c-7.36-1.4-11.92-6.21-14-13.22-4-13.58-7.76-27.22-11.6-40.85a6.75,6.75,0,0,1,0-1.64H759v54.84H715.48c0,5.13,0,9.79,0,14.45q-.06,44.93-.17,89.85c0,7.68-.29,15.37-.68,23-.46,9-3.73,17.33-10,23.61-20,19.94-40.39,39.43-60.64,59.1l-1.21-.55c0-1.72,0-3.45,0-5.17-.23-12.23.25-24.52-.88-36.66-1.71-18.42-17.4-29.29-34.61-24.81-8.54,2.22-14.38,8.14-19.23,15.11-6.83,9.83-13.49,19.79-20.28,29.64-10.94,15.87-24.06,29.42-41.42,38.34-24.4,12.53-49.71,15.26-76,6.63-8-2.62-14.87-6.62-16.58-15.81a38.62,38.62,0,0,1-.38-7.38c.12-12.89.31-25.77.48-38.66C433.92,526.7,433.91,525.42,433.91,524.76Zm84.41-165.28c31.5,19.55,53.23,46.25,61.89,82.81,10.52-4.64,20.82-7.26,31.93-5.81s20.38,6.45,29.57,13v-90Z"/><path d="M422.85,625.09c-11.24,0-21.9-.09-32.56,0-7.76.09-15.29,1.39-22.12,5.4-9.13,5.34-12.91,13.64-12.75,23.86.15,10,4.69,17.81,14,21.61,6.9,2.82,14.42,4.12,21.66,6.07,1,.26,2,.37,3.73.7l-15.46,20.69c7.74,8.64,15.35,17.15,23.2,25.93a48.28,48.28,0,0,1-24.9,4.91c-39.31-2.1-71.91-32.22-76.54-71.27-2.54-21.49,5.12-40,19.26-55.81,5-5.59,11-10.36,16.68-15.25,5.88-5,11.56-10.25,11.49-18.57A49.83,49.83,0,0,0,346,558.9q-34.11-107.19-68.46-214.29c-6.48-20.29-12.77-40.65-19.16-61-.54-1.74-1.1-3.48-1.8-5.15-4.87-11.67-12.42-16.74-25.11-16.63-9,.08-18,.71-26.94.56-10.4-.18-20.84-.48-31.18-1.56-12.17-1.27-21.62-9-23.76-19.49-2.76-13.47,1.76-24.16,16-28.06A40.59,40.59,0,0,1,176,211.7c24.61-.1,49.23-.44,73.82.14,27.36.65,46.77,15.52,55.52,42.39,16,49,31.52,98.25,47.24,147.38q31.67,99,63.28,197.93C418.44,607.81,420.44,616.27,422.85,625.09Z"/><path d="M627.53,733.71c5.29-5.76,9.88-10.83,14.56-15.81q13.36-14.25,26.83-28.38c3.92-4.1,8.75-6.73,14.48-6.75,33.72-.07,67.44-.45,101.14.17,20.49.39,31.15,19.55,22.09,38-4.5,9.2-12.42,12.43-22.1,12.48-28,.14-56,.32-84,.37-22.65,0-45.3-.07-68-.11Z"/><path d="M407.2,846.54a49.88,49.88,0,1,1,49.88-49.88A49.94,49.94,0,0,1,407.2,846.54Zm0-69.12a19.25,19.25,0,1,0,19.25,19.24A19.27,19.27,0,0,0,407.2,777.42Z"/><path d="M714.58,842.63a49.88,49.88,0,1,1,49.88-49.88A49.94,49.94,0,0,1,714.58,842.63Zm0-69.13a19.25,19.25,0,1,0,19.24,19.25A19.27,19.27,0,0,0,714.58,773.5Z"/></svg>