<svg id="Layer_1" data-name="Layer 1" xmlns="http://www.w3.org/2000/svg" viewBox="0 0 1080 1080"><path d="M649.17,644.52c-11.24,0-21.9-.09-32.56,0-7.76.09-15.29,1.39-22.12,5.4-9.13,5.35-12.91,13.64-12.75,23.86.15,10,4.69,17.81,14,21.61,6.9,2.82,14.42,4.12,21.66,6.07,1,.26,2,.38,3.73.7l-15.46,20.69,23.2,25.93a48.28,48.28,0,0,1-24.9,4.91c-39.32-2.1-71.91-32.22-76.54-71.27-2.54-21.48,5.12-40,19.26-55.81,5-5.59,11-10.35,16.68-15.24s11.55-10.26,11.49-18.58a49.88,49.88,0,0,0-2.51-14.49Q538.21,471.16,503.86,364c-6.48-20.29-12.77-40.65-19.16-61-.54-1.74-1.1-3.47-1.8-5.15-4.87-11.67-12.42-16.74-25.11-16.63-9,.08-18,.71-26.94.56-10.4-.18-20.84-.48-31.18-1.56-12.17-1.26-21.62-9-23.76-19.49-2.76-13.47,1.76-24.15,16-28.06a40.59,40.59,0,0,1,10.36-1.6c24.61-.1,49.22-.44,73.82.14,27.36.65,46.77,15.52,55.52,42.39,16,49,31.52,98.25,47.24,147.38Q610.52,520,642.13,619C644.76,627.24,646.76,635.7,649.17,644.52Z"/><path d="M633.52,866A49.88,49.88,0,1,1,683.4,816.1,49.94,49.94,0,0,1,633.52,866Zm0-69.13a19.25,19.25,0,1,0,19.25,19.25A19.27,19.27,0,0,0,633.52,796.85Z"/></svg>