<svg id="Layer_1" data-name="Layer 1" xmlns="http://www.w3.org/2000/svg" viewBox="0 0 1080 1080"><path d="M677,692.15c-11.24,0-21.91-.1-32.57,0-7.76.09-15.28,1.39-22.12,5.4-9.13,5.34-12.9,13.64-12.75,23.86.16,10,4.7,17.81,14,21.61,6.89,2.82,14.41,4.11,21.66,6.06,1,.27,2,.38,3.72.71l-15.46,20.69c7.74,8.64,15.35,17.15,23.2,25.93a48.17,48.17,0,0,1-24.9,4.9c-39.31-2.09-71.91-32.21-76.53-71.26-2.55-21.49,5.12-40,19.26-55.81,5-5.59,10.94-10.36,16.68-15.25s11.55-10.25,11.48-18.57A49.83,49.83,0,0,0,600.16,626q-34.1-107.19-68.45-214.29c-6.49-20.3-12.77-40.66-19.17-61-.54-1.74-1.1-3.48-1.8-5.15-4.87-11.67-12.41-16.74-25.11-16.63-9,.08-18,.71-26.94.56-10.4-.18-20.84-.48-31.17-1.56-12.18-1.27-21.63-9-23.77-19.49-2.75-13.47,1.76-24.16,16-28.06a40.67,40.67,0,0,1,10.37-1.6c24.6-.1,49.22-.44,73.81.14,27.36.65,46.77,15.52,55.52,42.39,16,49,31.52,98.24,47.24,147.38q31.66,99,63.28,197.93C672.61,674.86,674.6,683.33,677,692.15Z"/></svg>