<svg id="Layer_1" data-name="Layer 1" xmlns="http://www.w3.org/2000/svg" viewBox="0 0 1080 1080"><path d="M414.55,567.88c5.3-5.76,9.89-10.83,14.57-15.81q13.36-14.24,26.83-28.38c3.91-4.1,8.75-6.73,14.48-6.74,33.71-.08,67.44-.46,101.14.17,20.48.38,31.14,19.54,22.09,38-4.5,9.19-12.43,12.42-22.11,12.47-28,.14-56,.32-84,.38-22.66,0-45.31-.08-68-.12Z"/><path d="M505.73,676.81a49.88,49.88,0,1,1,49.88-49.88A49.94,49.94,0,0,1,505.73,676.81Zm0-69.13A19.25,19.25,0,1,0,525,626.93,19.27,19.27,0,0,0,505.73,607.68Z"/></svg>