<svg id="Layer_1" data-name="Layer 1" xmlns="http://www.w3.org/2000/svg" viewBox="0 0 1080 1080"><path d="M627.13,602.29h-50.4V541.44q0-35.28-22-35.29-7.2,0-13.5,6.12a81.73,81.73,0,0,0-11.88,15q-5.6,8.82-12.6,17.82t-19.27,15.12q-12.24,6.14-28.8,6.12A90.36,90.36,0,0,1,440.63,562v-41.4a73.17,73.17,0,0,0,20.88,2.88,25.18,25.18,0,0,0,13.14-3.78,37.64,37.64,0,0,0,9.36-7.39,152.63,152.63,0,0,0,9.18-12.78q6.12-9.18,8.28-12.06-4.32-24.12-19.62-36.36t-39.06-12.25V401H421.9V360.69H658.1V401h-31ZM543.6,463.67q23,0,33.13,14V401h-87.5q41.78,18,52.93,62.65Z"/></svg>