<svg id="Layer_1" data-name="Layer 1" xmlns="http://www.w3.org/2000/svg" viewBox="0 0 1080 1080"><defs><style>.cls-1{fill:#ed1c24;}</style></defs><path d="M408.35,516.29c12.95.66,25.41,2.11,37.81,1.73,20.84-.64,35.67-10.86,43.25-30.69,5.56-14.52,8-29.15.61-43.85-5.48-11-14.46-18.62-24.55-25.09-15.23-9.77-32-16.19-49-22-5.18-1.77-5-1.73-4.48-7.36,1.26-12.81,2.37-25.63,3.56-38.64a19.85,19.85,0,0,0-2.85-.39c-18.61.08-37.22.22-55.84.26a53.76,53.76,0,0,1-10.08-.6c-7.36-1.4-11.92-6.21-14-13.22-4-13.58-7.76-27.22-11.6-40.85a6.75,6.75,0,0,1,0-1.64H733.44v54.84H689.92c0,5.13,0,9.79,0,14.45,0,29.95,0,59.9-.17,89.85,0,7.68-.29,15.37-.68,23-.47,9-3.73,17.33-10,23.61-20,19.94-40.4,39.43-60.65,59.1l-1.2-.55c0-1.72,0-3.45,0-5.17-.22-12.23.26-24.52-.87-36.66-1.71-18.42-17.41-29.29-34.61-24.82-8.55,2.23-14.38,8.14-19.23,15.12-6.84,9.83-13.49,19.79-20.29,29.64-10.93,15.87-24.05,29.42-41.41,38.34-24.41,12.53-49.72,15.26-76,6.63-8-2.62-14.87-6.62-16.59-15.81a37.82,37.82,0,0,1-.37-7.38c.12-12.89.31-25.77.47-38.66C408.36,518.22,408.35,517,408.35,516.29ZM492.75,351c31.51,19.55,53.24,46.25,61.9,82.81,10.52-4.64,20.82-7.26,31.93-5.81s20.38,6.45,29.56,13V351Z"/><path d="M602,725.23c5.3-5.75,9.89-10.82,14.57-15.8q13.37-14.25,26.83-28.38c3.91-4.1,8.75-6.73,14.48-6.75,33.71-.07,67.44-.45,101.14.17,20.48.38,31.15,19.55,22.09,38-4.5,9.19-12.43,12.43-22.1,12.48-28,.14-56,.32-84,.37-22.65,0-45.31-.07-68-.12Z"/><path d="M689,834.16a49.88,49.88,0,1,1,49.88-49.88A49.94,49.94,0,0,1,689,834.16ZM689,765a19.25,19.25,0,1,0,19.25,19.25A19.28,19.28,0,0,0,689,765Z"/><path class="cls-1" d="M499,814.1,378.28,695.53l49.21-45.61,66.66,80.37,252-268.58-34.81-30.49L850.6,395.11c-7.91,46.66-15.7,92.61-23.53,138.83a4.87,4.87,0,0,1-1.41-.58c-7.69-7-15.54-13.86-23-21.15-8.23-8.08-14.67-8.39-22.65,0-13.69,14.47-27.19,29.11-40.76,43.68Q681.41,618.1,623.53,680.27q-60.12,64.61-120.2,129.25C502,810.93,500.68,812.32,499,814.1Z"/></svg>